<svg xmlns="http://www.w3.org/2000/svg" width="1204" height="1432" viewBox="0 0 1204 1432">
  <g id="Grupo_125197" data-name="Grupo 125197" transform="translate(-1480 9770)">
    <g id="Rectángulo_39299" data-name="Rectángulo 39299" transform="translate(2482 -9770)" fill="#ffe285" stroke="#fe7f05" stroke-width="2">
      <rect width="170" height="65" rx="8" stroke="none"/>
      <rect x="1" y="1" width="168" height="63" rx="7" fill="none"/>
    </g>
    <g id="Rectángulo_39300" data-name="Rectángulo 39300" transform="translate(2482 -9678)" fill="#ffe285" stroke="#fe7f05" stroke-width="2">
      <rect width="170" height="65" rx="8" stroke="none"/>
      <rect x="1" y="1" width="168" height="63" rx="7" fill="none"/>
    </g>
    <text id="Estructura_externa" data-name="Estructura 
externa" transform="translate(2567 -9742)" fill="#00223d" font-size="16" font-family="Roboto-Bold, Roboto" font-weight="700"><tspan x="-39.145" y="0">Estructura </tspan><tspan x="-27.109" y="22">externa</tspan></text>
    <path id="Trazado_188178" data-name="Trazado 188178" d="M1505-10955.5h-18v493h18" transform="translate(977 1217.001)" fill="none" stroke="#582469" stroke-width="3"/>
    <g id="Rectángulo_39289" data-name="Rectángulo 39289" transform="translate(2482 -9043)" fill="#ffe285" stroke="#fe7f05" stroke-width="2">
      <rect width="202" height="65" rx="8" stroke="none"/>
      <rect x="1" y="1" width="200" height="63" rx="7" fill="none"/>
    </g>
    <g id="Rectángulo_39290" data-name="Rectángulo 39290" transform="translate(2482 -8963)" fill="#ffe285" stroke="#fe7f05" stroke-width="2">
      <rect width="202" height="65" rx="8" stroke="none"/>
      <rect x="1" y="1" width="200" height="63" rx="7" fill="none"/>
    </g>
    <g id="Rectángulo_39291" data-name="Rectángulo 39291" transform="translate(2482 -8883)" fill="#ffe285" stroke="#fe7f05" stroke-width="2">
      <rect width="202" height="65" rx="8" stroke="none"/>
      <rect x="1" y="1" width="200" height="63" rx="7" fill="none"/>
    </g>
    <g id="Rectángulo_39292" data-name="Rectángulo 39292" transform="translate(2482 -8803)" fill="#ffe285" stroke="#fe7f05" stroke-width="2">
      <rect width="202" height="65" rx="8" stroke="none"/>
      <rect x="1" y="1" width="200" height="63" rx="7" fill="none"/>
    </g>
    <g id="Rectángulo_39293" data-name="Rectángulo 39293" transform="translate(2482 -8723)" fill="#ffe285" stroke="#fe7f05" stroke-width="2">
      <rect width="202" height="65" rx="8" stroke="none"/>
      <rect x="1" y="1" width="200" height="63" rx="7" fill="none"/>
    </g>
    <g id="Rectángulo_39294" data-name="Rectángulo 39294" transform="translate(2482 -8563)" fill="#ffe285" stroke="#fe7f05" stroke-width="2">
      <rect width="202" height="65" rx="8" stroke="none"/>
      <rect x="1" y="1" width="200" height="63" rx="7" fill="none"/>
    </g>
    <g id="Rectángulo_39295" data-name="Rectángulo 39295" transform="translate(2482 -8643)" fill="#ffe285" stroke="#fe7f05" stroke-width="2">
      <rect width="202" height="65" rx="8" stroke="none"/>
      <rect x="1" y="1" width="200" height="63" rx="7" fill="none"/>
    </g>
    <g id="Rectángulo_39296" data-name="Rectángulo 39296" transform="translate(2482 -8483)" fill="#ffe285" stroke="#fe7f05" stroke-width="2">
      <rect width="202" height="65" rx="8" stroke="none"/>
      <rect x="1" y="1" width="200" height="63" rx="7" fill="none"/>
    </g>
    <text id="Detección_de_las_señales_entrantes" data-name="Detección de las 
señales entrantes" transform="translate(2583 -9016)" fill="#00223d" font-size="16" font-family="Roboto-Bold, Roboto" font-weight="700"><tspan x="-61.352" y="0">Detección de las </tspan><tspan x="-63.977" y="22">señales entrantes</tspan></text>
    <text id="Mando_de_Las_órdenes" data-name="Mando de 
Las órdenes" transform="translate(2583 -8936)" fill="#00223d" font-size="16" font-family="Roboto-Bold, Roboto" font-weight="700"><tspan x="-37.625" y="0">Mando de </tspan><tspan x="-43.844" y="22">Las órdenes</tspan></text>
    <text id="Comunicación_entre_máquina_y_programador" data-name="Comunicación entre
máquina y programador" transform="translate(2583 -8856)" fill="#00223d" font-size="16" font-family="Roboto-Bold, Roboto" font-weight="700"><tspan x="-72.188" y="0">Comunicación entre</tspan><tspan x="-85.727" y="22">máquina y programador</tspan></text>
    <text id="Programación_Del_PCL" data-name="Programación 
Del PCL" transform="translate(2583 -8776)" fill="#00223d" font-size="16" font-family="Roboto-Bold, Roboto" font-weight="700"><tspan x="-52.621" y="0">Programación </tspan><tspan x="-28.363" y="22">Del PCL</tspan></text>
    <text id="Redes_de_comunicación" data-name="Redes 
de comunicación" transform="translate(2583 -8696)" fill="#00223d" font-size="16" font-family="Roboto-Bold, Roboto" font-weight="700"><tspan x="-24.367" y="0">Redes </tspan><tspan x="-61.281" y="22">de comunicación</tspan></text>
    <text id="Control_de_procesos_continuos" data-name="Control de
procesos continuos" transform="translate(2583 -8535)" fill="#00223d" font-size="16" font-family="Roboto-Bold, Roboto" font-weight="700"><tspan x="-37.188" y="0">Control de</tspan><tspan x="-70.637" y="22">procesos continuos</tspan></text>
    <text id="Sistemas_de_superposición" data-name="Sistemas de
superposición" transform="translate(2583 -8616)" fill="#00223d" font-size="16" font-family="Roboto-Bold, Roboto" font-weight="700"><tspan x="-44.332" y="0">Sistemas de</tspan><tspan x="-50.895" y="22">superposición</tspan></text>
    <text id="Módulos_de_entrada_salida" data-name="Módulos de
entrada/salida" transform="translate(2583 -8455)" fill="#00223d" font-size="16" font-family="Roboto-Bold, Roboto" font-weight="700"><tspan x="-42.098" y="0">Módulos de</tspan><tspan x="-51.824" y="22">entrada/salida</tspan></text>
    <g id="Rectángulo_39297" data-name="Rectángulo 39297" transform="translate(1480 -9151)" fill="#a042bf" stroke="#582469" stroke-width="3">
      <rect width="224" height="119" rx="8" stroke="none"/>
      <rect x="1.5" y="1.5" width="221" height="116" rx="6.5" fill="none"/>
    </g>
    <text id="PCL_controlador_logico_programable_" data-name="PCL 
(controlador logico 
programable)" transform="translate(1592 -9113)" fill="#fff" font-size="22" font-family="Roboto-Bold, Roboto" font-weight="700"><tspan x="-22.988" y="0">PCL </tspan><tspan x="-96.744" y="30">(controlador logico </tspan><tspan x="-66.612" y="60">programable)</tspan></text>
    <path id="Trazado_188168" data-name="Trazado 188168" d="M0,0H18" transform="translate(2464 -9645.5)" fill="none" stroke="#582469" stroke-width="3"/>
    <path id="Trazado_188169" data-name="Trazado 188169" d="M0,0H18" transform="translate(2464 -9565.5)" fill="none" stroke="#582469" stroke-width="3"/>
    <path id="Trazado_188170" data-name="Trazado 188170" d="M0,0H18" transform="translate(2464 -9485.5)" fill="none" stroke="#582469" stroke-width="3"/>
    <path id="Trazado_188171" data-name="Trazado 188171" d="M0,0H18" transform="translate(2464 -9405.5)" fill="none" stroke="#582469" stroke-width="3"/>
    <path id="Trazado_188172" data-name="Trazado 188172" d="M0,0H18" transform="translate(2464 -8930.5)" fill="none" stroke="#582469" stroke-width="3"/>
    <path id="Trazado_188173" data-name="Trazado 188173" d="M0,0H18" transform="translate(2464 -8850.5)" fill="none" stroke="#582469" stroke-width="3"/>
    <path id="Trazado_188174" data-name="Trazado 188174" d="M0,0H18" transform="translate(2464 -8770.5)" fill="none" stroke="#582469" stroke-width="3"/>
    <path id="Trazado_188175" data-name="Trazado 188175" d="M0,0H18" transform="translate(2464 -8690.5)" fill="none" stroke="#582469" stroke-width="3"/>
    <path id="Trazado_188176" data-name="Trazado 188176" d="M0,0H18" transform="translate(2464 -8530.5)" fill="none" stroke="#582469" stroke-width="3"/>
    <path id="Trazado_188177" data-name="Trazado 188177" d="M0,0H18" transform="translate(2464 -8610.5)" fill="none" stroke="#582469" stroke-width="3"/>
    <text id="son" transform="translate(2418 -8684)" fill="#00223d" font-size="16" font-family="Roboto-Regular, Roboto"><tspan x="-13.102" y="0">son</tspan></text>
    <g id="Grupo_125187" data-name="Grupo 125187" transform="translate(2139 250)">
      <path id="Trazado_188135" data-name="Trazado 188135" d="M0,0H20" transform="translate(235.5 -8940.5)" fill="none" stroke="#582469" stroke-width="3"/>
      <circle id="Elipse_5172" data-name="Elipse 5172" cx="3.5" cy="3.5" r="3.5" transform="translate(252 -8944)" fill="#582469"/>
    </g>
    <g id="Grupo_125188" data-name="Grupo 125188" transform="translate(-357 -352)">
      <path id="Trazado_188133" data-name="Trazado 188133" d="M0,0H20" transform="translate(2801 -9140.5)" fill="none" stroke="#582469" stroke-width="3"/>
      <circle id="Elipse_5174" data-name="Elipse 5174" cx="3.5" cy="3.5" r="3.5" transform="translate(2798 -9144)" fill="#582469"/>
    </g>
    <g id="Rectángulo_39298" data-name="Rectángulo 39298" transform="translate(1840 -9173)" fill="#f0c4ff" stroke="#a042bf" stroke-width="2">
      <rect width="244" height="164" rx="8" stroke="none"/>
      <rect x="1" y="1" width="242" height="162" rx="7" fill="none"/>
    </g>
    <text id="Un_elemento_electrónico_diseñado_para_controlar_los_procesos_secuenciales_industriales_de_manera_programada_y_en_tiempo_real_" data-name="Un elemento electrónico
diseñado para controlar
los procesos secuenciales
industriales de manera
programada y en 
tiempo real " transform="translate(1962 -9139)" fill="#00223d" font-size="18" font-family="Roboto-Black, Roboto" font-weight="800"><tspan x="-99.176" y="0">Un elemento electrónico</tspan><tspan x="-96.258" y="22">diseñado para controlar</tspan><tspan x="-106.989" y="44">los procesos secuenciales</tspan><tspan x="-93.037" y="66">industriales de manera</tspan><tspan x="-70.334" y="88">programada y en </tspan><tspan x="-48.296" y="110">tiempo real </tspan></text>
    <text id="es" transform="translate(1772 -9085)" fill="#00223d" font-size="16" font-family="Roboto-Regular, Roboto"><tspan x="-8.363" y="0">es</tspan></text>
    <g id="Grupo_125189" data-name="Grupo 125189" transform="matrix(0.017, -1, 1, 0.017, 10191.517, -6695.01)">
      <path id="Trazado_188122" data-name="Trazado 188122" d="M0,0H38.5" transform="translate(2249.5 -8402) rotate(-90)" fill="none" stroke="#582469" stroke-width="3"/>
      <circle id="Elipse_5178" data-name="Elipse 5178" cx="3.5" cy="3.5" r="3.5" transform="translate(2246 -8442)" fill="#582469"/>
    </g>
    <g id="Grupo_125190" data-name="Grupo 125190" transform="translate(-499 -497)">
      <path id="Trazado_188119" data-name="Trazado 188119" d="M0,0H38.5" transform="translate(2251.5 -8594.5) rotate(180)" fill="none" stroke="#582469" stroke-width="3"/>
      <circle id="Elipse_5179" data-name="Elipse 5179" cx="3.5" cy="3.5" r="3.5" transform="translate(2246 -8591) rotate(-90)" fill="#582469"/>
    </g>
    <g id="Grupo_125191" data-name="Grupo 125191" transform="translate(-357 -357)">
      <path id="Trazado_188136" data-name="Trazado 188136" d="M0,0H20" transform="translate(2801 -8333.5)" fill="none" stroke="#582469" stroke-width="3"/>
      <circle id="Elipse_5180" data-name="Elipse 5180" cx="3.5" cy="3.5" r="3.5" transform="translate(2798 -8337)" fill="#582469"/>
    </g>
    <g id="Rectángulo_39301" data-name="Rectángulo 39301" transform="translate(2482 -9598)" fill="#ffe285" stroke="#fe7f05" stroke-width="2">
      <rect width="170" height="65" rx="8" stroke="none"/>
      <rect x="1" y="1" width="168" height="63" rx="7" fill="none"/>
    </g>
    <g id="Rectángulo_39302" data-name="Rectángulo 39302" transform="translate(2482 -9518)" fill="#ffe285" stroke="#fe7f05" stroke-width="2">
      <rect width="170" height="65" rx="8" stroke="none"/>
      <rect x="1" y="1" width="168" height="63" rx="7" fill="none"/>
    </g>
    <g id="Rectángulo_39303" data-name="Rectángulo 39303" transform="translate(2482 -9438)" fill="#ffe285" stroke="#fe7f05" stroke-width="2">
      <rect width="170" height="65" rx="8" stroke="none"/>
      <rect x="1" y="1" width="168" height="63" rx="7" fill="none"/>
    </g>
    <g id="Rectángulo_39304" data-name="Rectángulo 39304" transform="translate(2482 -9358)" fill="#ffe285" stroke="#fe7f05" stroke-width="2">
      <rect width="170" height="65" rx="8" stroke="none"/>
      <rect x="1" y="1" width="168" height="63" rx="7" fill="none"/>
    </g>
    <text id="Estructura_interna" data-name="Estructura 
interna" transform="translate(2567 -9651)" fill="#00223d" font-size="16" font-family="Roboto-Bold, Roboto" font-weight="700"><tspan x="-39.145" y="0">Estructura </tspan><tspan x="-25.316" y="22">interna</tspan></text>
    <text id="Memoria" transform="translate(2567 -9560)" fill="#00223d" font-size="16" font-family="Roboto-Bold, Roboto" font-weight="700"><tspan x="-32.109" y="0">Memoria</tspan></text>
    <text id="CPU" transform="translate(2567 -9480)" fill="#00223d" font-size="16" font-family="Roboto-Bold, Roboto" font-weight="700"><tspan x="-15.66" y="0">CPU</tspan></text>
    <text id="Interfaces" transform="translate(2567 -9399)" fill="#00223d" font-size="16" font-family="Roboto-Bold, Roboto" font-weight="700"><tspan x="-36.602" y="0">Interfaces</tspan></text>
    <text id="Unidades_de_programación" data-name="Unidades de
programación" transform="translate(2567 -9330)" fill="#00223d" font-size="16" font-family="Roboto-Bold, Roboto" font-weight="700"><tspan x="-44.434" y="0">Unidades de</tspan><tspan x="-49.973" y="22">programación</tspan></text>
    <path id="Trazado_188179" data-name="Trazado 188179" d="M1505-10955.5h-18v640h18" transform="translate(977 1945.001)" fill="none" stroke="#582469" stroke-width="3"/>
    <g id="Rectángulo_39305" data-name="Rectángulo 39305" transform="translate(2235 -9520)" fill="#bdf5a9" stroke="#95e17a" stroke-width="2">
      <rect width="130" height="54" rx="8" stroke="none"/>
      <rect x="1" y="1" width="128" height="52" rx="7" fill="none"/>
    </g>
    <text id="Estructura" transform="translate(2250 -9503)" fill="#12263f" font-size="16" font-family="Roboto-Regular, Roboto"><tspan x="-36.516" y="15">Estructura</tspan></text>
    <g id="Rectángulo_39306" data-name="Rectángulo 39306" transform="translate(2482 -9278)" fill="#ffe285" stroke="#fe7f05" stroke-width="2">
      <rect width="170" height="65" rx="8" stroke="none"/>
      <rect x="1" y="1" width="168" height="63" rx="7" fill="none"/>
    </g>
    <text id="Periféricos" transform="translate(2567 -9239)" fill="#00223d" font-size="16" font-family="Roboto-Bold, Roboto" font-weight="700"><tspan x="-39.418" y="0">Periféricos</tspan></text>
    <path id="Trazado_188180" data-name="Trazado 188180" d="M0,0H18" transform="translate(2464 -9325.5)" fill="none" stroke="#582469" stroke-width="3"/>
    <g id="Rectángulo_39307" data-name="Rectángulo 39307" transform="translate(2482 -8403)" fill="#ffe285" stroke="#fe7f05" stroke-width="2">
      <rect width="202" height="65" rx="8" stroke="none"/>
      <rect x="1" y="1" width="200" height="63" rx="7" fill="none"/>
    </g>
    <text id="Buses_de_campo" data-name="Buses
de campo" transform="translate(2583 -8375)" fill="#00223d" font-size="16" font-family="Roboto-Bold, Roboto" font-weight="700"><tspan x="-22.133" y="0">Buses</tspan><tspan x="-35.238" y="22">de campo</tspan></text>
    <path id="Trazado_188181" data-name="Trazado 188181" d="M0,0H18" transform="translate(2464 -8450.5)" fill="none" stroke="#582469" stroke-width="3"/>
    <text id="es-2" data-name="es" transform="translate(2418 -9486)" fill="#00223d" font-size="16" font-family="Roboto-Regular, Roboto"><tspan x="-8.363" y="0">es</tspan></text>
    <g id="Grupo_125192" data-name="Grupo 125192" transform="translate(2139 -552)">
      <path id="Trazado_188135-2" data-name="Trazado 188135" d="M0,0H20" transform="translate(235.5 -8940.5)" fill="none" stroke="#582469" stroke-width="3"/>
      <circle id="Elipse_5172-2" data-name="Elipse 5172" cx="3.5" cy="3.5" r="3.5" transform="translate(252 -8944)" fill="#582469"/>
    </g>
    <g id="Rectángulo_39308" data-name="Rectángulo 39308" transform="translate(2235 -8717)" fill="#bdf5a9" stroke="#95e17a" stroke-width="2">
      <rect width="130" height="53" rx="8" stroke="none"/>
      <rect x="1" y="1" width="128" height="51" rx="7" fill="none"/>
    </g>
    <text id="Funciones" transform="translate(2250 -8701)" fill="#12263f" font-size="16" font-family="Roboto-Regular, Roboto"><tspan x="-36.629" y="15">Funciones</tspan></text>
    <path id="Trazado_188182" data-name="Trazado 188182" d="M0,0H38.5" transform="translate(2084 -9091.5)" fill="none" stroke="#582469" stroke-width="3"/>
    <text id="sus" transform="translate(2179 -8684)" fill="#00223d" font-size="16" font-family="Roboto-Regular, Roboto"><tspan x="-12.66" y="0">sus</tspan></text>
    <g id="Grupo_125193" data-name="Grupo 125193" transform="translate(-219 -402)">
      <circle id="Elipse_5200" data-name="Elipse 5200" cx="3.5" cy="3.5" r="3.5" transform="translate(2366 -9094)" fill="#582469"/>
      <circle id="Elipse_5202" data-name="Elipse 5202" cx="3.5" cy="3.5" r="3.5" transform="translate(2366 -8292)" fill="#582469"/>
      <path id="Trazado_188167" data-name="Trazado 188167" d="M1505-10955.5h-28v802h28" transform="translate(864.5 1865.002)" fill="none" stroke="#582469" stroke-width="3"/>
    </g>
    <g id="Grupo_125194" data-name="Grupo 125194" transform="translate(-596 -352)">
      <path id="Trazado_188133-2" data-name="Trazado 188133" d="M0,0H20" transform="translate(2801 -9140.5)" fill="none" stroke="#582469" stroke-width="3"/>
      <circle id="Elipse_5174-2" data-name="Elipse 5174" cx="3.5" cy="3.5" r="3.5" transform="translate(2798 -9144)" fill="#582469"/>
    </g>
    <g id="Grupo_125195" data-name="Grupo 125195" transform="translate(-596 450)">
      <path id="Trazado_188133-3" data-name="Trazado 188133" d="M0,0H20" transform="translate(2801 -9140.5)" fill="none" stroke="#582469" stroke-width="3"/>
      <circle id="Elipse_5174-3" data-name="Elipse 5174" cx="3.5" cy="3.5" r="3.5" transform="translate(2798 -9144)" fill="#582469"/>
    </g>
    <text id="su" transform="translate(2179 -9486)" fill="#00223d" font-size="16" font-family="Roboto-Regular, Roboto"><tspan x="-8.535" y="0">su</tspan></text>
  </g>
</svg>
