<svg xmlns="http://www.w3.org/2000/svg" width="322.711" height="322.738" viewBox="0 0 322.711 322.738">
  <g id="Group_125172" data-name="Group 125172" transform="translate(11025.792 11157.775)">
    <path id="Path_188116" data-name="Path 188116" d="M78.82,182.058a162.143,162.143,0,0,0,18.292,59.995l15.6-8.322a144.124,144.124,0,0,0,36.194,43.877l-11.2,13.737a160.024,160.024,0,0,0,55.307,29.517l5.142-16.977a143.921,143.921,0,0,0,56.622,5.547l1.4,13.722.427,3.923a161.753,161.753,0,0,0,59.936-18.314l-8.331-15.6A145.453,145.453,0,0,0,352.139,257l13.744,11.195a161.047,161.047,0,0,0,24.976-42.517q2.483-6.263,4.473-12.8l-4.473-1.374-12.488-3.8a145.722,145.722,0,0,0,5.078-23.566,143.258,143.258,0,0,0,1.131-22.647q-.155-5.2-.677-10.343l5.877-.6,11.6-1.185h.154A161.474,161.474,0,0,0,386.62,96.065c-1.087-2.285-2.2-4.533-3.431-6.77l-12.664,6.77-2.938,1.564c-.279-.528-.565-1.043-.846-1.564a143.808,143.808,0,0,0-35.26-42.284l11.2-13.737a159.711,159.711,0,0,0-44.956-25.988q-5.136-1.932-10.416-3.548l-5.142,16.977a145.023,145.023,0,0,0-23.977-5.142A142.706,142.706,0,0,0,225.6,21.97L223.784,4.338a162.057,162.057,0,0,0-60,18.3l8.331,15.6a144.063,144.063,0,0,0-43.86,36.128l-13.725-11.2a160.451,160.451,0,0,0-29.551,55.374l16.977,5.134a143.689,143.689,0,0,0-5.525,56.564l-12.473,1.278-5.078.6Zm86.292-39.183A78.365,78.365,0,1,1,167.1,194.3a78.366,78.366,0,0,1-1.984-51.422M78.82,182.058a162.143,162.143,0,0,0,18.292,59.995l15.6-8.322a144.124,144.124,0,0,0,36.194,43.877l-11.2,13.737a160.024,160.024,0,0,0,55.307,29.517l5.142-16.977a143.921,143.921,0,0,0,56.622,5.547l1.4,13.722.427,3.923a161.753,161.753,0,0,0,59.936-18.314l-8.331-15.6A145.453,145.453,0,0,0,352.139,257l13.744,11.195a161.047,161.047,0,0,0,24.976-42.517q2.483-6.263,4.473-12.8l-4.473-1.374-12.488-3.8a145.722,145.722,0,0,0,5.078-23.566,143.258,143.258,0,0,0,1.131-22.647q-.155-5.2-.677-10.343l5.877-.6,11.6-1.185h.154A161.474,161.474,0,0,0,386.62,96.065c-1.087-2.285-2.2-4.533-3.431-6.77l-12.664,6.77-2.938,1.564c-.279-.528-.565-1.043-.846-1.564a143.808,143.808,0,0,0-35.26-42.284l11.2-13.737a159.711,159.711,0,0,0-44.956-25.988q-5.136-1.932-10.416-3.548l-5.142,16.977a145.023,145.023,0,0,0-23.977-5.142A142.706,142.706,0,0,0,225.6,21.97L223.784,4.338a162.057,162.057,0,0,0-60,18.3l8.331,15.6a144.063,144.063,0,0,0-43.86,36.128l-13.725-11.2a160.451,160.451,0,0,0-29.551,55.374l16.977,5.134a143.689,143.689,0,0,0-5.525,56.564l-12.473,1.278-5.078.6Zm86.292-39.183A78.365,78.365,0,1,1,167.1,194.3a78.366,78.366,0,0,1-1.984-51.422" transform="translate(-11104.612 -11162.113)" fill="#95e17a"/>
    <path id="Path_188117" data-name="Path 188117" d="M259.189,317.653l-1.77-17.513-5.971.609a137.529,137.529,0,0,1-54.264-5.289l-5.724-1.74-5.142,16.9-.449-.154a153.887,153.887,0,0,1-42.04-22.427l-.374-.286L154.6,274.062l-4.672-3.776a137.476,137.476,0,0,1-34.679-42.055l-2.838-5.261-15.47,8.212-.206-.427a155.371,155.371,0,0,1-13.913-45.625l-.066-.471,17.522-1.781-.618-5.958a137.475,137.475,0,0,1,5.3-54.208l1.733-5.729-16.9-5.142.154-.455a153.591,153.591,0,0,1,22.479-42.079l.286-.383L126.4,80.085l3.783-4.672a137.4,137.4,0,0,1,42.033-34.622l5.247-2.828-8.25-15.479.427-.206a155.2,155.2,0,0,1,45.61-13.955l.471-.066,1.8,17.52,5.958-.609a136.313,136.313,0,0,1,13.957-.735,137.761,137.761,0,0,1,17.2,1.087h.059a139.64,139.64,0,0,1,22.978,4.922l5.729,1.742,5.142-16.9.449.154c1.278.44,2.586.919,3.893,1.418l1.4.537a153.791,153.791,0,0,1,36.81,20.48l.383.286L320.316,51.929l4.672,3.783a136.792,136.792,0,0,1,32.02,37.406c.873,1.469,1.748,3.047,2.6,4.627l2.822,5.261,15.492-8.272.213.427a154.461,154.461,0,0,1,13.894,45.632l.066.471-5.685.574-11.834,1.219.618,5.958c.339,3.216.543,6.486.647,9.719.044,1.469.066,2.877.066,4.253a138.668,138.668,0,0,1-5.98,40.234l-1.742,5.729,16.9,5.142-.154.449c-.735,2.043-1.469,4.128-2.307,6.193a154.612,154.612,0,0,1-20.069,35.855l-.286.383-13.71-11.151-3.776,4.643a138.886,138.886,0,0,1-42.128,34.716L297.389,288l8.265,15.492-.427.207a155.16,155.16,0,0,1-45.544,13.957Zm-.917-18.518,1.77,17.483a154.186,154.186,0,0,0,44.391-13.576l-8.243-15.426,6.061-3.262a137.648,137.648,0,0,0,41.878-34.447l4.357-5.349,13.634,11.107a153.921,153.921,0,0,0,19.658-35.26c.735-1.9,1.469-3.82,2.138-5.707l-16.926-5.135,2.006-6.611a137.68,137.68,0,0,0,5.971-39.968c0-1.366,0-2.791-.066-4.231-.1-3.216-.316-6.457-.647-9.648l-.735-6.868L391,140.442a153.679,153.679,0,0,0-13.541-44.457l-15.426,8.256-3.262-6.061c-.846-1.572-1.711-3.123-2.578-4.605a135.9,135.9,0,0,0-31.809-37.14L319,52.071,330.14,38.415A153.231,153.231,0,0,0,293.919,18.34l-1.366-.552c-1.146-.433-2.292-.846-3.422-1.249l-5.142,16.829-6.611-2.006a138.37,138.37,0,0,0-22.785-4.876h-.051a136.868,136.868,0,0,0-30.974-.367l-6.868.735L214.93,9.337a154.476,154.476,0,0,0-44.459,13.595l8.25,15.426-6.061,3.255a136.522,136.522,0,0,0-41.768,34.374l-4.357,5.384L112.879,70.234A152.905,152.905,0,0,0,91.011,111.26l16.834,5.144-2.006,6.611a136.371,136.371,0,0,0-5.272,53.837l.735,6.875L83.82,185.505a154.435,154.435,0,0,0,13.574,44.428l15.426-8.243,3.255,6.061a136.557,136.557,0,0,0,34.461,41.771l5.377,4.357-11.151,13.656a152.762,152.762,0,0,0,40.96,21.883l5.142-16.836,6.611,2.006a137.636,137.636,0,0,0,40.065,5.987,135.475,135.475,0,0,0,13.84-.735Z" transform="translate(-11101.884 -11159.398)" fill="#3aa255"/>
    <path id="Path_188118" data-name="Path 188118" d="M209.076,219.921a85.52,85.52,0,0,1-79.493-54.239c-.339-.873-.625-1.645-.882-2.37A85.239,85.239,0,0,1,157,67.006c1.418-1.087,2.894-2.153,4.4-3.167A85.773,85.773,0,0,1,200.52,49.684c2.571-.251,5.186-.4,7.772-.418h.735a85.256,85.256,0,0,1,85.382,85.213c0,1.308,0,2.615-.095,3.893-.044.977-.1,2-.191,3.026a86.163,86.163,0,0,1-3.407,17.9,84.839,84.839,0,0,1-81.64,60.62m-.112-169.743h-.735c-2.556,0-5.142.169-7.691.418A84.858,84.858,0,0,0,161.87,64.553c-1.469,1-2.938,2.056-4.348,3.13a84.567,84.567,0,0,0-32.939,66.943,83.6,83.6,0,0,0,4.937,28.362c.251.735.537,1.469.873,2.329a84.419,84.419,0,0,0,162.734-23.955c.088-1.016.147-2.031.191-3,.059-1.263.088-2.556.088-3.849a84.479,84.479,0,0,0-84.478-84.353Z" transform="translate(-11073.524 -11130.997)" fill="#3aa255"/>
  </g>
</svg>
