<svg xmlns="http://www.w3.org/2000/svg" xmlns:xlink="http://www.w3.org/1999/xlink" width="460.171" height="304.09" viewBox="0 0 460.171 304.09">
  <defs>
    <clipPath id="clip-path">
      <path id="Path_187848" data-name="Path 187848" d="M45.628,39.178a5.85,5.85,0,0,0-5.848,5.983l1.333,58.576a5.849,5.849,0,0,0,5.847,5.715h71.414a5.849,5.849,0,0,0,5.848-5.688l1.606-58.576a5.849,5.849,0,0,0-5.846-6.009Z" transform="translate(-39.779 -39.178)" fill="#95e17a"/>
    </clipPath>
    <clipPath id="clip-path-2">
      <rect id="Rectangle_39147" data-name="Rectangle 39147" width="115.433" height="99.21" fill="none"/>
    </clipPath>
    <clipPath id="clip-path-3">
      <path id="Path_187849" data-name="Path 187849" d="M5.63.25A5.379,5.379,0,0,0,.254,5.811l.8,23.706a5.379,5.379,0,0,0,5.376,5.2H42.473A5.38,5.38,0,0,0,47.851,29.5l.725-23.706A5.38,5.38,0,0,0,43.2.25Z" transform="translate(-0.251 -0.25)" fill="none"/>
    </clipPath>
    <linearGradient id="linear-gradient" x1="-0.002" y1="2.873" x2="0.013" y2="2.873" gradientUnits="objectBoundingBox">
      <stop offset="0" stop-color="#d906e3"/>
      <stop offset="1" stop-color="#ff6df9"/>
    </linearGradient>
    <clipPath id="clip-path-5">
      <rect id="Rectangle_39178" data-name="Rectangle 39178" width="160.684" height="96.48" fill="none"/>
    </clipPath>
    <clipPath id="clip-path-6">
      <rect id="Rectangle_39150" data-name="Rectangle 39150" width="160.684" height="96.48" fill="#582469"/>
    </clipPath>
    <clipPath id="clip-path-7">
      <path id="Path_187855" data-name="Path 187855" d="M153.922.062,5.66,1.234A5.562,5.562,0,0,0,.143,6.9l.088,4.666h160.2l.257-4.389A6.722,6.722,0,0,0,153.976.062h-.053" transform="translate(-0.142 -0.062)" fill="#a042bf"/>
    </clipPath>
    <clipPath id="clip-path-8">
      <path id="Path_187856" data-name="Path 187856" d="M9.122,20.129V68.3H58.158V19.877Z" transform="translate(-9.122 -19.877)" fill="#fff"/>
    </clipPath>
    <clipPath id="clip-path-9">
      <rect id="Rectangle_39154" data-name="Rectangle 39154" width="21.33" height="21.33" fill="#fff"/>
    </clipPath>
    <clipPath id="clip-path-13">
      <rect id="Rectangle_39174" data-name="Rectangle 39174" width="27.899" height="27.899" fill="#ffbd31"/>
    </clipPath>
  </defs>
  <g id="Group_125172" data-name="Group 125172" transform="translate(-953.967 -205.391)">
    <g id="Group_125159" data-name="Group 125159" transform="translate(953.967 410.271)">
      <g id="Group_125088" data-name="Group 125088" transform="translate(29.381 28.937)">
        <g id="Group_125087" data-name="Group 125087" clip-path="url(#clip-path)">
          <rect id="Rectangle_39128" data-name="Rectangle 39128" width="80.469" height="94.298" transform="translate(-8.762 69.182) rotate(-82.841)" fill="#95e17a"/>
        </g>
      </g>
      <g id="Group_125090" data-name="Group 125090" transform="translate(0 0)">
        <g id="Group_125089" data-name="Group 125089" clip-path="url(#clip-path-2)">
          <rect id="Rectangle_39129" data-name="Rectangle 39129" width="37.558" height="1.608" transform="translate(48.633 40.918)" fill="#fff"/>
          <rect id="Rectangle_39130" data-name="Rectangle 39130" width="18.779" height="1.607" transform="translate(48.633 44.83)" fill="#fff"/>
          <rect id="Rectangle_39131" data-name="Rectangle 39131" width="18.779" height="1.608" transform="translate(48.633 48.095)" fill="#fff"/>
          <rect id="Rectangle_39132" data-name="Rectangle 39132" width="14.94" height="1.608" transform="translate(69.519 48.095)" fill="#fff"/>
          <rect id="Rectangle_39133" data-name="Rectangle 39133" width="30.275" height="1.607" transform="translate(48.633 51.361)" fill="#fff"/>
          <rect id="Rectangle_39134" data-name="Rectangle 39134" width="10.775" height="1.608" transform="translate(48.633 54.625)" fill="#fff"/>
          <rect id="Rectangle_39135" data-name="Rectangle 39135" width="18.636" height="1.607" transform="translate(61.624 64.422)" fill="#fff"/>
          <rect id="Rectangle_39136" data-name="Rectangle 39136" width="33.773" height="1.607" transform="translate(48.633 57.892)" fill="#fff"/>
          <rect id="Rectangle_39137" data-name="Rectangle 39137" width="25.983" height="1.608" transform="translate(48.633 61.156)" fill="#fff"/>
          <rect id="Rectangle_39138" data-name="Rectangle 39138" width="12.222" height="1.607" transform="translate(48.633 64.422)" fill="#fff"/>
          <rect id="Rectangle_39139" data-name="Rectangle 39139" width="18.779" height="1.608" transform="translate(48.633 67.687)" fill="#fff"/>
          <rect id="Rectangle_39140" data-name="Rectangle 39140" width="5.388" height="1.608" transform="translate(48.633 70.952)" fill="#fff"/>
          <rect id="Rectangle_39141" data-name="Rectangle 39141" width="19.546" height="1.608" transform="translate(56.237 70.952)" fill="#fff"/>
          <rect id="Rectangle_39142" data-name="Rectangle 39142" width="18.636" height="1.608" transform="translate(61.624 74.122)" fill="#fff"/>
          <rect id="Rectangle_39143" data-name="Rectangle 39143" width="12.222" height="1.608" transform="translate(48.633 74.122)" fill="#fff"/>
          <rect id="Rectangle_39144" data-name="Rectangle 39144" width="18.779" height="1.607" transform="translate(48.633 77.388)" fill="#fff"/>
          <rect id="Rectangle_39145" data-name="Rectangle 39145" width="5.388" height="1.608" transform="translate(48.633 80.652)" fill="#fff"/>
          <rect id="Rectangle_39146" data-name="Rectangle 39146" width="19.546" height="1.608" transform="translate(56.237 80.652)" fill="#fff"/>
        </g>
      </g>
      <g id="Group_125092" data-name="Group 125092" transform="translate(0.185 0.184)">
        <g id="Group_125091" data-name="Group 125091" clip-path="url(#clip-path-3)">
          <rect id="Rectangle_39148" data-name="Rectangle 39148" width="48.517" height="34.465" transform="translate(-0.1 0)" fill="url(#linear-gradient)"/>
        </g>
      </g>
      <g id="Group_125094" data-name="Group 125094" transform="translate(0 0)">
        <g id="Group_125093" data-name="Group 125093" clip-path="url(#clip-path-2)">
          <path id="Path_187850" data-name="Path 187850" d="M42.408,34.835H6.365A5.543,5.543,0,0,1,.8,29.458L0,5.752A5.564,5.564,0,0,1,5.565,0H43.132a5.565,5.565,0,0,1,5.562,5.734l-.725,23.706a5.539,5.539,0,0,1-5.561,5.394" transform="translate(0 0)" fill="#ffdf73"/>
          <path id="Path_187851" data-name="Path 187851" d="M18.482,11.781,9.6,22.082l9.049,7.682V25.8L13.41,21.267l4.862-5.5Z" transform="translate(-2.508 -3.08)" fill="#12263f"/>
          <path id="Path_187852" data-name="Path 187852" d="M42.51,12.408l8.887,10.3-9.05,7.682V26.426l5.235-4.532-5.826-6.165Z" transform="translate(-10.915 -3.243)" fill="#12263f"/>
          <path id="Path_187853" data-name="Path 187853" d="M24.248,30.092l7.743-17.058H35.63L26.861,30.092Z" transform="translate(-6.338 -3.407)" fill="#12263f"/>
        </g>
      </g>
    </g>
    <g id="Group_125160" data-name="Group 125160" transform="translate(1158.375 376.563)">
      <g id="Group_125116" data-name="Group 125116" transform="translate(95.079 -171.171)" clip-path="url(#clip-path-5)">
        <g id="Group_125097" data-name="Group 125097">
          <g id="Group_125096" data-name="Group 125096" clip-path="url(#clip-path-6)">
            <path id="Path_187854" data-name="Path 187854" d="M0,7.322l2.92,83.24a6.133,6.133,0,0,0,6.13,5.918H152.446a6.133,6.133,0,0,0,6.132-5.988L160.585,6.28A6.134,6.134,0,0,0,154.412,0L6.093.974A6.133,6.133,0,0,0,0,7.322" transform="translate(0 0)" fill="#582469"/>
          </g>
        </g>
        <g id="Group_125099" data-name="Group 125099" transform="translate(0.129 0.056)">
          <g id="Group_125098" data-name="Group 125098" clip-path="url(#clip-path-7)">
            <rect id="Rectangle_39151" data-name="Rectangle 39151" width="160.827" height="11.504" transform="translate(-0.057 0)" fill="#a042bf"/>
          </g>
        </g>
        <g id="Group_125101" data-name="Group 125101" transform="translate(8.272 18.024)">
          <g id="Group_125100" data-name="Group 125100" clip-path="url(#clip-path-8)">
            <rect id="Rectangle_39152" data-name="Rectangle 39152" width="49.036" height="48.425" transform="translate(0 0)" fill="#fff"/>
          </g>
        </g>
        <g id="Group_125103" data-name="Group 125103" transform="translate(104.695 21.51)">
          <g id="Group_125102" data-name="Group 125102" clip-path="url(#clip-path-9)">
            <rect id="Rectangle_39153" data-name="Rectangle 39153" width="21.33" height="21.33" fill="#fff"/>
          </g>
        </g>
        <g id="Group_125105" data-name="Group 125105" transform="translate(129.863 21.51)">
          <g id="Group_125104" data-name="Group 125104" clip-path="url(#clip-path-9)">
            <rect id="Rectangle_39155" data-name="Rectangle 39155" width="21.33" height="21.33" fill="#fff"/>
          </g>
        </g>
        <g id="Group_125107" data-name="Group 125107" transform="translate(79.109 21.51)">
          <g id="Group_125106" data-name="Group 125106" clip-path="url(#clip-path-9)">
            <rect id="Rectangle_39157" data-name="Rectangle 39157" width="21.33" height="21.33" transform="translate(0)" fill="#fff"/>
          </g>
        </g>
        <g id="Group_125115" data-name="Group 125115">
          <g id="Group_125114" data-name="Group 125114" clip-path="url(#clip-path-5)">
            <rect id="Rectangle_39159" data-name="Rectangle 39159" width="54.546" height="5.11" transform="translate(96.647 55.276)" fill="#fff"/>
            <rect id="Rectangle_39160" data-name="Rectangle 39160" width="68.189" height="1.581" transform="translate(83.004 63.052)" fill="#fff"/>
            <rect id="Rectangle_39161" data-name="Rectangle 39161" width="13.045" height="1.581" transform="translate(83.647 45.56)" fill="#fff"/>
            <rect id="Rectangle_39162" data-name="Rectangle 39162" width="13.045" height="1.581" transform="translate(108.839 45.56)" fill="#fff"/>
            <rect id="Rectangle_39163" data-name="Rectangle 39163" width="13.045" height="1.581" transform="translate(134.006 45.56)" fill="#fff"/>
            <rect id="Rectangle_39164" data-name="Rectangle 39164" width="21.935" height="1.581" transform="translate(79.109 65.622)" fill="#fff"/>
            <rect id="Rectangle_39165" data-name="Rectangle 39165" width="68.189" height="1.581" transform="translate(83.004 68.162)" fill="#fff"/>
            <rect id="Rectangle_39166" data-name="Rectangle 39166" width="72.084" height="1.581" transform="translate(79.109 70.702)" fill="#fff"/>
            <rect id="Rectangle_39167" data-name="Rectangle 39167" width="72.084" height="1.581" transform="translate(79.109 73.241)" fill="#fff"/>
            <rect id="Rectangle_39168" data-name="Rectangle 39168" width="68.189" height="1.581" transform="translate(83.004 83.509)" fill="#fff"/>
            <rect id="Rectangle_39169" data-name="Rectangle 39169" width="72.084" height="1.581" transform="translate(79.109 86.049)" fill="#fff"/>
            <rect id="Rectangle_39170" data-name="Rectangle 39170" width="72.084" height="1.581" transform="translate(79.109 88.589)" fill="#fff"/>
            <rect id="Rectangle_39171" data-name="Rectangle 39171" width="69.184" height="1.581" transform="translate(79.109 75.781)" fill="#fff"/>
            <rect id="Rectangle_39172" data-name="Rectangle 39172" width="68.189" height="1.581" transform="translate(83.004 78.321)" fill="#fff"/>
            <rect id="Rectangle_39173" data-name="Rectangle 39173" width="58.403" height="1.581" transform="translate(79.109 80.86)" fill="#fff"/>
            <rect id="Rectangle_39176" data-name="Rectangle 39176" width="49.368" height="2.475" transform="translate(107.173 4.529)" fill="#fff"/>
            <path id="Path_187861" data-name="Path 187861" d="M6.43,5.382,7.449,3.836l5.511,4.831-.845,1.177Z" transform="translate(-0.599 -0.358)" fill="#fff"/>
            <path id="Path_187862" data-name="Path 187862" d="M13.117,5.382,12.1,3.836,6.586,8.668l.845,1.177Z" transform="translate(-0.614 -0.358)" fill="#fff"/>
            <g id="Group_125118" data-name="Group 125118" transform="translate(8.061 28.89)" style="mix-blend-mode: soft-light;isolation: isolate">
              <g id="Group_125109" data-name="Group 125109">
                <g id="Group_125108" data-name="Group 125108" clip-path="url(#clip-path-13)">
                  <path id="Path_187857" data-name="Path 187857" d="M22.839,59.759A13.95,13.95,0,1,1,36.788,45.81,13.966,13.966,0,0,1,22.839,59.759m0-26.992A13.043,13.043,0,1,0,35.881,45.81,13.058,13.058,0,0,0,22.839,32.767" transform="translate(-8.889 -31.86)" fill="#ffbd31"/>
                </g>
              </g>
            </g>
          </g>
        </g>
      </g>
    </g>
  </g>
</svg>
